<?xml version="1.0" encoding="utf-8"?><svg viewBox="0 0 40 32" xmlns="http://www.w3.org/2000/svg" xmlns:xlink="http://www.w3.org/1999/xlink"><style>:root>svg{display:none}:root>svg:target{display:block}</style><svg viewBox="0 0 15 29" id="fb" xmlns="http://www.w3.org/2000/svg"><path d="M13.078 16l.656-4.313H9.563V8.876c0-1.219.562-2.344 2.437-2.344h1.922V2.828S12.187 2.5 10.547 2.5c-3.422 0-5.672 2.11-5.672 5.86v3.328H1.031V16h3.844v10.5h4.688V16h3.515z"/></svg><svg viewBox="0 0 22 29" id="ig" xmlns="http://www.w3.org/2000/svg"><path d="M14.714 14.929a3.435 3.435 0 01-3.428 3.428 3.435 3.435 0 01-3.429-3.428 3.435 3.435 0 013.429-3.429 3.435 3.435 0 013.428 3.429zm1.848 0a5.27 5.27 0 00-5.276-5.277 5.27 5.27 0 00-5.277 5.277 5.27 5.27 0 005.277 5.276 5.27 5.27 0 005.277-5.276zm1.447-5.492c0-.683-.55-1.232-1.232-1.232-.683 0-1.232.55-1.232 1.232 0 .684.549 1.233 1.232 1.233.683 0 1.232-.55 1.232-1.232zm-6.723-2.946c1.5 0 4.714-.12 6.067.415a3.29 3.29 0 011.178.777c.362.362.59.71.777 1.179.536 1.352.415 4.567.415 6.067s.12 4.714-.415 6.066a3.288 3.288 0 01-.777 1.18 3.29 3.29 0 01-1.178.776c-1.353.536-4.567.415-6.067.415s-4.715.12-6.067-.415a3.289 3.289 0 01-1.179-.777 3.288 3.288 0 01-.777-1.178c-.535-1.353-.415-4.567-.415-6.067s-.12-4.715.415-6.067c.188-.47.416-.817.777-1.179.362-.362.71-.59 1.179-.777 1.352-.535 4.567-.415 6.067-.415zM21.57 14.93c0-1.42.014-2.826-.067-4.246-.08-1.647-.455-3.107-1.66-4.312-1.206-1.206-2.665-1.58-4.313-1.661-1.42-.08-2.826-.067-4.245-.067-1.42 0-2.826-.014-4.246.067-1.647.08-3.107.455-4.312 1.66-1.206 1.206-1.58 2.666-1.661 4.313C.987 12.103 1 13.509 1 14.929c0 1.42-.013 2.825.067 4.245.08 1.647.455 3.107 1.66 4.313 1.206 1.205 2.666 1.58 4.313 1.66 1.42.08 2.826.067 4.246.067 1.42 0 2.826.014 4.245-.067 1.648-.08 3.107-.455 4.313-1.66 1.205-1.206 1.58-2.666 1.66-4.313.08-1.42.067-2.826.067-4.245z"/></svg><svg viewBox="0 0 40 32" id="tools" xmlns="http://www.w3.org/2000/svg"><g clip-path="url(#cclip0_1_3)" fill-rule="evenodd" clip-rule="evenodd"><path d="M19.998 31.372l3.785-.05V.042L19.998 0l-4.32.048v31.284l4.32.04zM31.895 31.332h7.971L40 11.372h-8.107l.002 19.96zM.002 31.332h7.296l.268-19.96H0l.002 19.96z"/></g><defs><clipPath id="cclip0_1_3"><path fill="#fff" d="M0 0h40v31.373H0z"/></clipPath></defs></svg></svg>